<?xml version="1.0" encoding="utf-8"?>
<svg xmlns="http://www.w3.org/2000/svg" xmlns:xlink="http://www.w3.org/1999/xlink" style="margin: auto; background: rgb(238, 136, 9); display: block; z-index: 1; position: relative; shape-rendering: auto;" width="1536" height="696" preserveAspectRatio="xMidYMid" viewBox="0 0 1536 696">
<g transform="translate(768,348) scale(1,1) translate(-768,-348)"><g transform="translate(-100 115.3027569725882) rotate(0)">
  <animateTransform attributeName="transform" type="translate" keyTimes="0;1" values="-100 115.3027569725882;1536 115.3027569725882" dur="66.66666666666667s" repeatCount="indefinite" begin="-2.8423231665000754s"></animateTransform>
  <path d="M84.717,33.597c0.791-2.503,1.186-5.138,1.186-7.773C85.903,11.594,74.308,0,60.079,0 c-9.881,0-18.445,5.534-22.793,13.702c-1.581-0.527-3.426-0.791-5.138-0.791c-9.486,0-17.128,7.642-17.128,17.128 c0,1.186,0.132,2.372,0.395,3.426C6.719,34.783,0,42.424,0,51.515C0,61.66,8.169,69.829,18.314,69.829h63.373 C91.831,69.829,100,61.66,100,51.515C99.868,42.556,93.281,35.046,84.717,33.597z" fill="rgba(189, 222, 255, 0.6811613415133568)" transform="scale(0.7150000000000002)"></path>
</g><g transform="translate(-100 462.85884559125446) rotate(0)">
  <animateTransform attributeName="transform" type="translate" keyTimes="0;1" values="-100 462.85884559125446;1536 462.85884559125446" dur="66.66666666666667s" repeatCount="indefinite" begin="-9.138694250592557s"></animateTransform>
  <path d="M84.717,33.597c0.791-2.503,1.186-5.138,1.186-7.773C85.903,11.594,74.308,0,60.079,0 c-9.881,0-18.445,5.534-22.793,13.702c-1.581-0.527-3.426-0.791-5.138-0.791c-9.486,0-17.128,7.642-17.128,17.128 c0,1.186,0.132,2.372,0.395,3.426C6.719,34.783,0,42.424,0,51.515C0,61.66,8.169,69.829,18.314,69.829h63.373 C91.831,69.829,100,61.66,100,51.515C99.868,42.556,93.281,35.046,84.717,33.597z" fill="rgba(189, 222, 255, 0.6811613415133568)" transform="scale(0.7150000000000002)"></path>
</g><g transform="translate(-100 339.4687346412823) rotate(0)">
  <animateTransform attributeName="transform" type="translate" keyTimes="0;1" values="-100 339.4687346412823;1536 339.4687346412823" dur="66.66666666666667s" repeatCount="indefinite" begin="-43.456576786061284s"></animateTransform>
  <path d="M84.717,33.597c0.791-2.503,1.186-5.138,1.186-7.773C85.903,11.594,74.308,0,60.079,0 c-9.881,0-18.445,5.534-22.793,13.702c-1.581-0.527-3.426-0.791-5.138-0.791c-9.486,0-17.128,7.642-17.128,17.128 c0,1.186,0.132,2.372,0.395,3.426C6.719,34.783,0,42.424,0,51.515C0,61.66,8.169,69.829,18.314,69.829h63.373 C91.831,69.829,100,61.66,100,51.515C99.868,42.556,93.281,35.046,84.717,33.597z" fill="rgba(189, 222, 255, 0.6811613415133568)" transform="scale(0.7150000000000002)"></path>
</g><g transform="translate(-100 639.9463410228603) rotate(0)">
  <animateTransform attributeName="transform" type="translate" keyTimes="0;1" values="-100 639.9463410228603;1536 639.9463410228603" dur="66.66666666666667s" repeatCount="indefinite" begin="-47.43461802108294s"></animateTransform>
  <path d="M84.717,33.597c0.791-2.503,1.186-5.138,1.186-7.773C85.903,11.594,74.308,0,60.079,0 c-9.881,0-18.445,5.534-22.793,13.702c-1.581-0.527-3.426-0.791-5.138-0.791c-9.486,0-17.128,7.642-17.128,17.128 c0,1.186,0.132,2.372,0.395,3.426C6.719,34.783,0,42.424,0,51.515C0,61.66,8.169,69.829,18.314,69.829h63.373 C91.831,69.829,100,61.66,100,51.515C99.868,42.556,93.281,35.046,84.717,33.597z" fill="rgba(189, 222, 255, 0.6811613415133568)" transform="scale(0.7150000000000002)"></path>
</g><g transform="translate(-100 631.3449628938082) rotate(0)">
  <animateTransform attributeName="transform" type="translate" keyTimes="0;1" values="-100 631.3449628938082;1536 631.3449628938082" dur="66.66666666666667s" repeatCount="indefinite" begin="-4.049576334786428s"></animateTransform>
  <path d="M84.717,33.597c0.791-2.503,1.186-5.138,1.186-7.773C85.903,11.594,74.308,0,60.079,0 c-9.881,0-18.445,5.534-22.793,13.702c-1.581-0.527-3.426-0.791-5.138-0.791c-9.486,0-17.128,7.642-17.128,17.128 c0,1.186,0.132,2.372,0.395,3.426C6.719,34.783,0,42.424,0,51.515C0,61.66,8.169,69.829,18.314,69.829h63.373 C91.831,69.829,100,61.66,100,51.515C99.868,42.556,93.281,35.046,84.717,33.597z" fill="rgba(189, 222, 255, 0.6811613415133568)" transform="scale(0.7150000000000002)"></path>
</g><g transform="translate(-100 543.2878764816886) rotate(0)">
  <animateTransform attributeName="transform" type="translate" keyTimes="0;1" values="-100 543.2878764816886;1536 543.2878764816886" dur="66.66666666666667s" repeatCount="indefinite" begin="-59.14023174020644s"></animateTransform>
  <path d="M84.717,33.597c0.791-2.503,1.186-5.138,1.186-7.773C85.903,11.594,74.308,0,60.079,0 c-9.881,0-18.445,5.534-22.793,13.702c-1.581-0.527-3.426-0.791-5.138-0.791c-9.486,0-17.128,7.642-17.128,17.128 c0,1.186,0.132,2.372,0.395,3.426C6.719,34.783,0,42.424,0,51.515C0,61.66,8.169,69.829,18.314,69.829h63.373 C91.831,69.829,100,61.66,100,51.515C99.868,42.556,93.281,35.046,84.717,33.597z" fill="rgba(189, 222, 255, 0.6811613415133568)" transform="scale(0.7150000000000002)"></path>
</g><g transform="translate(-100 259.9178563064301) rotate(0)">
  <animateTransform attributeName="transform" type="translate" keyTimes="0;1" values="-100 259.9178563064301;1536 259.9178563064301" dur="66.66666666666667s" repeatCount="indefinite" begin="-27.794249315940835s"></animateTransform>
  <path d="M84.717,33.597c0.791-2.503,1.186-5.138,1.186-7.773C85.903,11.594,74.308,0,60.079,0 c-9.881,0-18.445,5.534-22.793,13.702c-1.581-0.527-3.426-0.791-5.138-0.791c-9.486,0-17.128,7.642-17.128,17.128 c0,1.186,0.132,2.372,0.395,3.426C6.719,34.783,0,42.424,0,51.515C0,61.66,8.169,69.829,18.314,69.829h63.373 C91.831,69.829,100,61.66,100,51.515C99.868,42.556,93.281,35.046,84.717,33.597z" fill="rgba(189, 222, 255, 0.6811613415133568)" transform="scale(0.7150000000000002)"></path>
</g><g transform="translate(-100 213.2600367525543) rotate(0)">
  <animateTransform attributeName="transform" type="translate" keyTimes="0;1" values="-100 213.2600367525543;1536 213.2600367525543" dur="66.66666666666667s" repeatCount="indefinite" begin="-62.70677357236355s"></animateTransform>
  <path d="M84.717,33.597c0.791-2.503,1.186-5.138,1.186-7.773C85.903,11.594,74.308,0,60.079,0 c-9.881,0-18.445,5.534-22.793,13.702c-1.581-0.527-3.426-0.791-5.138-0.791c-9.486,0-17.128,7.642-17.128,17.128 c0,1.186,0.132,2.372,0.395,3.426C6.719,34.783,0,42.424,0,51.515C0,61.66,8.169,69.829,18.314,69.829h63.373 C91.831,69.829,100,61.66,100,51.515C99.868,42.556,93.281,35.046,84.717,33.597z" fill="rgba(189, 222, 255, 0.6811613415133568)" transform="scale(0.7150000000000002)"></path>
</g><g transform="translate(-100 414.91819843563917) rotate(0)">
  <animateTransform attributeName="transform" type="translate" keyTimes="0;1" values="-100 414.91819843563917;1536 414.91819843563917" dur="66.66666666666667s" repeatCount="indefinite" begin="-28.090300771557093s"></animateTransform>
  <path d="M84.717,33.597c0.791-2.503,1.186-5.138,1.186-7.773C85.903,11.594,74.308,0,60.079,0 c-9.881,0-18.445,5.534-22.793,13.702c-1.581-0.527-3.426-0.791-5.138-0.791c-9.486,0-17.128,7.642-17.128,17.128 c0,1.186,0.132,2.372,0.395,3.426C6.719,34.783,0,42.424,0,51.515C0,61.66,8.169,69.829,18.314,69.829h63.373 C91.831,69.829,100,61.66,100,51.515C99.868,42.556,93.281,35.046,84.717,33.597z" fill="rgba(189, 222, 255, 0.6811613415133568)" transform="scale(0.7150000000000002)"></path>
</g><g transform="translate(-100 613.8277078551092) rotate(0)">
  <animateTransform attributeName="transform" type="translate" keyTimes="0;1" values="-100 613.8277078551092;1536 613.8277078551092" dur="66.66666666666667s" repeatCount="indefinite" begin="-59.240136075192645s"></animateTransform>
  <path d="M84.717,33.597c0.791-2.503,1.186-5.138,1.186-7.773C85.903,11.594,74.308,0,60.079,0 c-9.881,0-18.445,5.534-22.793,13.702c-1.581-0.527-3.426-0.791-5.138-0.791c-9.486,0-17.128,7.642-17.128,17.128 c0,1.186,0.132,2.372,0.395,3.426C6.719,34.783,0,42.424,0,51.515C0,61.66,8.169,69.829,18.314,69.829h63.373 C91.831,69.829,100,61.66,100,51.515C99.868,42.556,93.281,35.046,84.717,33.597z" fill="rgba(189, 222, 255, 0.6811613415133568)" transform="scale(0.7150000000000002)"></path>
</g><g transform="translate(-100 621.7562179734515) rotate(0)">
  <animateTransform attributeName="transform" type="translate" keyTimes="0;1" values="-100 621.7562179734515;1536 621.7562179734515" dur="66.66666666666667s" repeatCount="indefinite" begin="-2.4710704868109445s"></animateTransform>
  <path d="M84.717,33.597c0.791-2.503,1.186-5.138,1.186-7.773C85.903,11.594,74.308,0,60.079,0 c-9.881,0-18.445,5.534-22.793,13.702c-1.581-0.527-3.426-0.791-5.138-0.791c-9.486,0-17.128,7.642-17.128,17.128 c0,1.186,0.132,2.372,0.395,3.426C6.719,34.783,0,42.424,0,51.515C0,61.66,8.169,69.829,18.314,69.829h63.373 C91.831,69.829,100,61.66,100,51.515C99.868,42.556,93.281,35.046,84.717,33.597z" fill="rgba(189, 222, 255, 0.6811613415133568)" transform="scale(0.7150000000000002)"></path>
</g><g transform="translate(-100 624.3869898570401) rotate(0)">
  <animateTransform attributeName="transform" type="translate" keyTimes="0;1" values="-100 624.3869898570401;1536 624.3869898570401" dur="33.333333333333336s" repeatCount="indefinite" begin="-52.90457833141956s"></animateTransform>
  <path d="M84.717,33.597c0.791-2.503,1.186-5.138,1.186-7.773C85.903,11.594,74.308,0,60.079,0 c-9.881,0-18.445,5.534-22.793,13.702c-1.581-0.527-3.426-0.791-5.138-0.791c-9.486,0-17.128,7.642-17.128,17.128 c0,1.186,0.132,2.372,0.395,3.426C6.719,34.783,0,42.424,0,51.515C0,61.66,8.169,69.829,18.314,69.829h63.373 C91.831,69.829,100,61.66,100,51.515C99.868,42.556,93.281,35.046,84.717,33.597z" fill="rgba(9, 232, 249, 0.974709728610131)" transform="scale(0.9100000000000001)"></path>
</g><g transform="translate(-100 175.6601420700747) rotate(0)">
  <animateTransform attributeName="transform" type="translate" keyTimes="0;1" values="-100 175.6601420700747;1536 175.6601420700747" dur="33.333333333333336s" repeatCount="indefinite" begin="-63.666773031957234s"></animateTransform>
  <path d="M84.717,33.597c0.791-2.503,1.186-5.138,1.186-7.773C85.903,11.594,74.308,0,60.079,0 c-9.881,0-18.445,5.534-22.793,13.702c-1.581-0.527-3.426-0.791-5.138-0.791c-9.486,0-17.128,7.642-17.128,17.128 c0,1.186,0.132,2.372,0.395,3.426C6.719,34.783,0,42.424,0,51.515C0,61.66,8.169,69.829,18.314,69.829h63.373 C91.831,69.829,100,61.66,100,51.515C99.868,42.556,93.281,35.046,84.717,33.597z" fill="rgba(9, 232, 249, 0.974709728610131)" transform="scale(0.9100000000000001)"></path>
</g><g transform="translate(-100 51.49165275223292) rotate(0)">
  <animateTransform attributeName="transform" type="translate" keyTimes="0;1" values="-100 51.49165275223292;1536 51.49165275223292" dur="33.333333333333336s" repeatCount="indefinite" begin="-14.601604423930905s"></animateTransform>
  <path d="M84.717,33.597c0.791-2.503,1.186-5.138,1.186-7.773C85.903,11.594,74.308,0,60.079,0 c-9.881,0-18.445,5.534-22.793,13.702c-1.581-0.527-3.426-0.791-5.138-0.791c-9.486,0-17.128,7.642-17.128,17.128 c0,1.186,0.132,2.372,0.395,3.426C6.719,34.783,0,42.424,0,51.515C0,61.66,8.169,69.829,18.314,69.829h63.373 C91.831,69.829,100,61.66,100,51.515C99.868,42.556,93.281,35.046,84.717,33.597z" fill="rgba(9, 232, 249, 0.974709728610131)" transform="scale(0.9100000000000001)"></path>
</g><g transform="translate(-100 32.6890169668276) rotate(0)">
  <animateTransform attributeName="transform" type="translate" keyTimes="0;1" values="-100 32.6890169668276;1536 32.6890169668276" dur="33.333333333333336s" repeatCount="indefinite" begin="-60.169814981763864s"></animateTransform>
  <path d="M84.717,33.597c0.791-2.503,1.186-5.138,1.186-7.773C85.903,11.594,74.308,0,60.079,0 c-9.881,0-18.445,5.534-22.793,13.702c-1.581-0.527-3.426-0.791-5.138-0.791c-9.486,0-17.128,7.642-17.128,17.128 c0,1.186,0.132,2.372,0.395,3.426C6.719,34.783,0,42.424,0,51.515C0,61.66,8.169,69.829,18.314,69.829h63.373 C91.831,69.829,100,61.66,100,51.515C99.868,42.556,93.281,35.046,84.717,33.597z" fill="rgba(9, 232, 249, 0.974709728610131)" transform="scale(0.9100000000000001)"></path>
</g><g transform="translate(-100 102.42086148967908) rotate(0)">
  <animateTransform attributeName="transform" type="translate" keyTimes="0;1" values="-100 102.42086148967908;1536 102.42086148967908" dur="33.333333333333336s" repeatCount="indefinite" begin="-45.16841233299345s"></animateTransform>
  <path d="M84.717,33.597c0.791-2.503,1.186-5.138,1.186-7.773C85.903,11.594,74.308,0,60.079,0 c-9.881,0-18.445,5.534-22.793,13.702c-1.581-0.527-3.426-0.791-5.138-0.791c-9.486,0-17.128,7.642-17.128,17.128 c0,1.186,0.132,2.372,0.395,3.426C6.719,34.783,0,42.424,0,51.515C0,61.66,8.169,69.829,18.314,69.829h63.373 C91.831,69.829,100,61.66,100,51.515C99.868,42.556,93.281,35.046,84.717,33.597z" fill="rgba(9, 232, 249, 0.974709728610131)" transform="scale(0.9100000000000001)"></path>
</g><g transform="translate(-100 108.39067762620371) rotate(0)">
  <animateTransform attributeName="transform" type="translate" keyTimes="0;1" values="-100 108.39067762620371;1536 108.39067762620371" dur="33.333333333333336s" repeatCount="indefinite" begin="-56.06179556721918s"></animateTransform>
  <path d="M84.717,33.597c0.791-2.503,1.186-5.138,1.186-7.773C85.903,11.594,74.308,0,60.079,0 c-9.881,0-18.445,5.534-22.793,13.702c-1.581-0.527-3.426-0.791-5.138-0.791c-9.486,0-17.128,7.642-17.128,17.128 c0,1.186,0.132,2.372,0.395,3.426C6.719,34.783,0,42.424,0,51.515C0,61.66,8.169,69.829,18.314,69.829h63.373 C91.831,69.829,100,61.66,100,51.515C99.868,42.556,93.281,35.046,84.717,33.597z" fill="rgba(9, 232, 249, 0.974709728610131)" transform="scale(0.9100000000000001)"></path>
</g><g transform="translate(-100 664.4866306131922) rotate(0)">
  <animateTransform attributeName="transform" type="translate" keyTimes="0;1" values="-100 664.4866306131922;1536 664.4866306131922" dur="33.333333333333336s" repeatCount="indefinite" begin="-0.503710924304753s"></animateTransform>
  <path d="M84.717,33.597c0.791-2.503,1.186-5.138,1.186-7.773C85.903,11.594,74.308,0,60.079,0 c-9.881,0-18.445,5.534-22.793,13.702c-1.581-0.527-3.426-0.791-5.138-0.791c-9.486,0-17.128,7.642-17.128,17.128 c0,1.186,0.132,2.372,0.395,3.426C6.719,34.783,0,42.424,0,51.515C0,61.66,8.169,69.829,18.314,69.829h63.373 C91.831,69.829,100,61.66,100,51.515C99.868,42.556,93.281,35.046,84.717,33.597z" fill="rgba(9, 232, 249, 0.974709728610131)" transform="scale(0.9100000000000001)"></path>
</g><g transform="translate(-100 429.67613610014035) rotate(0)">
  <animateTransform attributeName="transform" type="translate" keyTimes="0;1" values="-100 429.67613610014035;1536 429.67613610014035" dur="33.333333333333336s" repeatCount="indefinite" begin="-13.820558186973388s"></animateTransform>
  <path d="M84.717,33.597c0.791-2.503,1.186-5.138,1.186-7.773C85.903,11.594,74.308,0,60.079,0 c-9.881,0-18.445,5.534-22.793,13.702c-1.581-0.527-3.426-0.791-5.138-0.791c-9.486,0-17.128,7.642-17.128,17.128 c0,1.186,0.132,2.372,0.395,3.426C6.719,34.783,0,42.424,0,51.515C0,61.66,8.169,69.829,18.314,69.829h63.373 C91.831,69.829,100,61.66,100,51.515C99.868,42.556,93.281,35.046,84.717,33.597z" fill="rgba(9, 232, 249, 0.974709728610131)" transform="scale(0.9100000000000001)"></path>
</g><g transform="translate(-100 344.92614923194543) rotate(0)">
  <animateTransform attributeName="transform" type="translate" keyTimes="0;1" values="-100 344.92614923194543;1536 344.92614923194543" dur="33.333333333333336s" repeatCount="indefinite" begin="-41.72793068483138s"></animateTransform>
  <path d="M84.717,33.597c0.791-2.503,1.186-5.138,1.186-7.773C85.903,11.594,74.308,0,60.079,0 c-9.881,0-18.445,5.534-22.793,13.702c-1.581-0.527-3.426-0.791-5.138-0.791c-9.486,0-17.128,7.642-17.128,17.128 c0,1.186,0.132,2.372,0.395,3.426C6.719,34.783,0,42.424,0,51.515C0,61.66,8.169,69.829,18.314,69.829h63.373 C91.831,69.829,100,61.66,100,51.515C99.868,42.556,93.281,35.046,84.717,33.597z" fill="rgba(9, 232, 249, 0.974709728610131)" transform="scale(0.9100000000000001)"></path>
</g><g transform="translate(-100 193.3523364970218) rotate(0)">
  <animateTransform attributeName="transform" type="translate" keyTimes="0;1" values="-100 193.3523364970218;1536 193.3523364970218" dur="33.333333333333336s" repeatCount="indefinite" begin="-32.95132932208225s"></animateTransform>
  <path d="M84.717,33.597c0.791-2.503,1.186-5.138,1.186-7.773C85.903,11.594,74.308,0,60.079,0 c-9.881,0-18.445,5.534-22.793,13.702c-1.581-0.527-3.426-0.791-5.138-0.791c-9.486,0-17.128,7.642-17.128,17.128 c0,1.186,0.132,2.372,0.395,3.426C6.719,34.783,0,42.424,0,51.515C0,61.66,8.169,69.829,18.314,69.829h63.373 C91.831,69.829,100,61.66,100,51.515C99.868,42.556,93.281,35.046,84.717,33.597z" fill="rgba(9, 232, 249, 0.974709728610131)" transform="scale(0.9100000000000001)"></path>
</g><g transform="translate(-100 590.304154376617) rotate(0)">
  <animateTransform attributeName="transform" type="translate" keyTimes="0;1" values="-100 590.304154376617;1536 590.304154376617" dur="33.333333333333336s" repeatCount="indefinite" begin="-6.099492277055567s"></animateTransform>
  <path d="M84.717,33.597c0.791-2.503,1.186-5.138,1.186-7.773C85.903,11.594,74.308,0,60.079,0 c-9.881,0-18.445,5.534-22.793,13.702c-1.581-0.527-3.426-0.791-5.138-0.791c-9.486,0-17.128,7.642-17.128,17.128 c0,1.186,0.132,2.372,0.395,3.426C6.719,34.783,0,42.424,0,51.515C0,61.66,8.169,69.829,18.314,69.829h63.373 C91.831,69.829,100,61.66,100,51.515C99.868,42.556,93.281,35.046,84.717,33.597z" fill="rgba(9, 232, 249, 0.974709728610131)" transform="scale(0.9100000000000001)"></path>
</g><g transform="translate(-100 673.3677178760324) rotate(0)">
  <animateTransform attributeName="transform" type="translate" keyTimes="0;1" values="-100 673.3677178760324;1536 673.3677178760324" dur="22.222222222222225s" repeatCount="indefinite" begin="-3.844628294189301s"></animateTransform>
  <path d="M84.717,33.597c0.791-2.503,1.186-5.138,1.186-7.773C85.903,11.594,74.308,0,60.079,0 c-9.881,0-18.445,5.534-22.793,13.702c-1.581-0.527-3.426-0.791-5.138-0.791c-9.486,0-17.128,7.642-17.128,17.128 c0,1.186,0.132,2.372,0.395,3.426C6.719,34.783,0,42.424,0,51.515C0,61.66,8.169,69.829,18.314,69.829h63.373 C91.831,69.829,100,61.66,100,51.515C99.868,42.556,93.281,35.046,84.717,33.597z" fill="rgba(31, 90, 246, 0.4714839221585182)" transform="scale(1.1050000000000002)"></path>
</g><g transform="translate(-100 359.8784384910376) rotate(0)">
  <animateTransform attributeName="transform" type="translate" keyTimes="0;1" values="-100 359.8784384910376;1536 359.8784384910376" dur="22.222222222222225s" repeatCount="indefinite" begin="-34.73995399228986s"></animateTransform>
  <path d="M84.717,33.597c0.791-2.503,1.186-5.138,1.186-7.773C85.903,11.594,74.308,0,60.079,0 c-9.881,0-18.445,5.534-22.793,13.702c-1.581-0.527-3.426-0.791-5.138-0.791c-9.486,0-17.128,7.642-17.128,17.128 c0,1.186,0.132,2.372,0.395,3.426C6.719,34.783,0,42.424,0,51.515C0,61.66,8.169,69.829,18.314,69.829h63.373 C91.831,69.829,100,61.66,100,51.515C99.868,42.556,93.281,35.046,84.717,33.597z" fill="rgba(31, 90, 246, 0.4714839221585182)" transform="scale(1.1050000000000002)"></path>
</g><g transform="translate(-100 571.5630199068402) rotate(0)">
  <animateTransform attributeName="transform" type="translate" keyTimes="0;1" values="-100 571.5630199068402;1536 571.5630199068402" dur="22.222222222222225s" repeatCount="indefinite" begin="-21.812048330364366s"></animateTransform>
  <path d="M84.717,33.597c0.791-2.503,1.186-5.138,1.186-7.773C85.903,11.594,74.308,0,60.079,0 c-9.881,0-18.445,5.534-22.793,13.702c-1.581-0.527-3.426-0.791-5.138-0.791c-9.486,0-17.128,7.642-17.128,17.128 c0,1.186,0.132,2.372,0.395,3.426C6.719,34.783,0,42.424,0,51.515C0,61.66,8.169,69.829,18.314,69.829h63.373 C91.831,69.829,100,61.66,100,51.515C99.868,42.556,93.281,35.046,84.717,33.597z" fill="rgba(31, 90, 246, 0.4714839221585182)" transform="scale(1.1050000000000002)"></path>
</g><g transform="translate(-100 400.1453051284709) rotate(0)">
  <animateTransform attributeName="transform" type="translate" keyTimes="0;1" values="-100 400.1453051284709;1536 400.1453051284709" dur="22.222222222222225s" repeatCount="indefinite" begin="-34.02979188463735s"></animateTransform>
  <path d="M84.717,33.597c0.791-2.503,1.186-5.138,1.186-7.773C85.903,11.594,74.308,0,60.079,0 c-9.881,0-18.445,5.534-22.793,13.702c-1.581-0.527-3.426-0.791-5.138-0.791c-9.486,0-17.128,7.642-17.128,17.128 c0,1.186,0.132,2.372,0.395,3.426C6.719,34.783,0,42.424,0,51.515C0,61.66,8.169,69.829,18.314,69.829h63.373 C91.831,69.829,100,61.66,100,51.515C99.868,42.556,93.281,35.046,84.717,33.597z" fill="rgba(31, 90, 246, 0.4714839221585182)" transform="scale(1.1050000000000002)"></path>
</g><g transform="translate(-100 310.5212137885342) rotate(0)">
  <animateTransform attributeName="transform" type="translate" keyTimes="0;1" values="-100 310.5212137885342;1536 310.5212137885342" dur="22.222222222222225s" repeatCount="indefinite" begin="-22.380537312504114s"></animateTransform>
  <path d="M84.717,33.597c0.791-2.503,1.186-5.138,1.186-7.773C85.903,11.594,74.308,0,60.079,0 c-9.881,0-18.445,5.534-22.793,13.702c-1.581-0.527-3.426-0.791-5.138-0.791c-9.486,0-17.128,7.642-17.128,17.128 c0,1.186,0.132,2.372,0.395,3.426C6.719,34.783,0,42.424,0,51.515C0,61.66,8.169,69.829,18.314,69.829h63.373 C91.831,69.829,100,61.66,100,51.515C99.868,42.556,93.281,35.046,84.717,33.597z" fill="rgba(31, 90, 246, 0.4714839221585182)" transform="scale(1.1050000000000002)"></path>
</g><g transform="translate(-100 207.2774877279847) rotate(0)">
  <animateTransform attributeName="transform" type="translate" keyTimes="0;1" values="-100 207.2774877279847;1536 207.2774877279847" dur="22.222222222222225s" repeatCount="indefinite" begin="-7.333660141345548s"></animateTransform>
  <path d="M84.717,33.597c0.791-2.503,1.186-5.138,1.186-7.773C85.903,11.594,74.308,0,60.079,0 c-9.881,0-18.445,5.534-22.793,13.702c-1.581-0.527-3.426-0.791-5.138-0.791c-9.486,0-17.128,7.642-17.128,17.128 c0,1.186,0.132,2.372,0.395,3.426C6.719,34.783,0,42.424,0,51.515C0,61.66,8.169,69.829,18.314,69.829h63.373 C91.831,69.829,100,61.66,100,51.515C99.868,42.556,93.281,35.046,84.717,33.597z" fill="rgba(31, 90, 246, 0.4714839221585182)" transform="scale(1.1050000000000002)"></path>
</g><g transform="translate(-100 621.3726189662666) rotate(0)">
  <animateTransform attributeName="transform" type="translate" keyTimes="0;1" values="-100 621.3726189662666;1536 621.3726189662666" dur="22.222222222222225s" repeatCount="indefinite" begin="-65.2268555250484s"></animateTransform>
  <path d="M84.717,33.597c0.791-2.503,1.186-5.138,1.186-7.773C85.903,11.594,74.308,0,60.079,0 c-9.881,0-18.445,5.534-22.793,13.702c-1.581-0.527-3.426-0.791-5.138-0.791c-9.486,0-17.128,7.642-17.128,17.128 c0,1.186,0.132,2.372,0.395,3.426C6.719,34.783,0,42.424,0,51.515C0,61.66,8.169,69.829,18.314,69.829h63.373 C91.831,69.829,100,61.66,100,51.515C99.868,42.556,93.281,35.046,84.717,33.597z" fill="rgba(31, 90, 246, 0.4714839221585182)" transform="scale(1.1050000000000002)"></path>
</g><g transform="translate(-100 402.31679874354995) rotate(0)">
  <animateTransform attributeName="transform" type="translate" keyTimes="0;1" values="-100 402.31679874354995;1536 402.31679874354995" dur="22.222222222222225s" repeatCount="indefinite" begin="-43.01181487211512s"></animateTransform>
  <path d="M84.717,33.597c0.791-2.503,1.186-5.138,1.186-7.773C85.903,11.594,74.308,0,60.079,0 c-9.881,0-18.445,5.534-22.793,13.702c-1.581-0.527-3.426-0.791-5.138-0.791c-9.486,0-17.128,7.642-17.128,17.128 c0,1.186,0.132,2.372,0.395,3.426C6.719,34.783,0,42.424,0,51.515C0,61.66,8.169,69.829,18.314,69.829h63.373 C91.831,69.829,100,61.66,100,51.515C99.868,42.556,93.281,35.046,84.717,33.597z" fill="rgba(31, 90, 246, 0.4714839221585182)" transform="scale(1.1050000000000002)"></path>
</g><g transform="translate(-100 387.9854856801478) rotate(0)">
  <animateTransform attributeName="transform" type="translate" keyTimes="0;1" values="-100 387.9854856801478;1536 387.9854856801478" dur="22.222222222222225s" repeatCount="indefinite" begin="-51.40727583295408s"></animateTransform>
  <path d="M84.717,33.597c0.791-2.503,1.186-5.138,1.186-7.773C85.903,11.594,74.308,0,60.079,0 c-9.881,0-18.445,5.534-22.793,13.702c-1.581-0.527-3.426-0.791-5.138-0.791c-9.486,0-17.128,7.642-17.128,17.128 c0,1.186,0.132,2.372,0.395,3.426C6.719,34.783,0,42.424,0,51.515C0,61.66,8.169,69.829,18.314,69.829h63.373 C91.831,69.829,100,61.66,100,51.515C99.868,42.556,93.281,35.046,84.717,33.597z" fill="rgba(31, 90, 246, 0.4714839221585182)" transform="scale(1.1050000000000002)"></path>
</g><g transform="translate(-100 181.67005224454573) rotate(0)">
  <animateTransform attributeName="transform" type="translate" keyTimes="0;1" values="-100 181.67005224454573;1536 181.67005224454573" dur="22.222222222222225s" repeatCount="indefinite" begin="-22.12448350879909s"></animateTransform>
  <path d="M84.717,33.597c0.791-2.503,1.186-5.138,1.186-7.773C85.903,11.594,74.308,0,60.079,0 c-9.881,0-18.445,5.534-22.793,13.702c-1.581-0.527-3.426-0.791-5.138-0.791c-9.486,0-17.128,7.642-17.128,17.128 c0,1.186,0.132,2.372,0.395,3.426C6.719,34.783,0,42.424,0,51.515C0,61.66,8.169,69.829,18.314,69.829h63.373 C91.831,69.829,100,61.66,100,51.515C99.868,42.556,93.281,35.046,84.717,33.597z" fill="rgba(31, 90, 246, 0.4714839221585182)" transform="scale(1.1050000000000002)"></path>
</g><g transform="translate(-100 463.90944799142676) rotate(0)">
  <animateTransform attributeName="transform" type="translate" keyTimes="0;1" values="-100 463.90944799142676;1536 463.90944799142676" dur="22.222222222222225s" repeatCount="indefinite" begin="-10.476787076362045s"></animateTransform>
  <path d="M84.717,33.597c0.791-2.503,1.186-5.138,1.186-7.773C85.903,11.594,74.308,0,60.079,0 c-9.881,0-18.445,5.534-22.793,13.702c-1.581-0.527-3.426-0.791-5.138-0.791c-9.486,0-17.128,7.642-17.128,17.128 c0,1.186,0.132,2.372,0.395,3.426C6.719,34.783,0,42.424,0,51.515C0,61.66,8.169,69.829,18.314,69.829h63.373 C91.831,69.829,100,61.66,100,51.515C99.868,42.556,93.281,35.046,84.717,33.597z" fill="rgba(31, 90, 246, 0.4714839221585182)" transform="scale(1.1050000000000002)"></path>
</g><g transform="translate(-100 587.4631215205455) rotate(0)">
  <animateTransform attributeName="transform" type="translate" keyTimes="0;1" values="-100 587.4631215205455;1536 587.4631215205455" dur="16.666666666666668s" repeatCount="indefinite" begin="-65.9581179337746s"></animateTransform>
  <path d="M84.717,33.597c0.791-2.503,1.186-5.138,1.186-7.773C85.903,11.594,74.308,0,60.079,0 c-9.881,0-18.445,5.534-22.793,13.702c-1.581-0.527-3.426-0.791-5.138-0.791c-9.486,0-17.128,7.642-17.128,17.128 c0,1.186,0.132,2.372,0.395,3.426C6.719,34.783,0,42.424,0,51.515C0,61.66,8.169,69.829,18.314,69.829h63.373 C91.831,69.829,100,61.66,100,51.515C99.868,42.556,93.281,35.046,84.717,33.597z" fill="rgba(191, 255, 250, 0.5385806963520665)" transform="scale(1.3000000000000003)"></path>
</g><g transform="translate(-100 164.01158326067755) rotate(0)">
  <animateTransform attributeName="transform" type="translate" keyTimes="0;1" values="-100 164.01158326067755;1536 164.01158326067755" dur="16.666666666666668s" repeatCount="indefinite" begin="-7.485503151036178s"></animateTransform>
  <path d="M84.717,33.597c0.791-2.503,1.186-5.138,1.186-7.773C85.903,11.594,74.308,0,60.079,0 c-9.881,0-18.445,5.534-22.793,13.702c-1.581-0.527-3.426-0.791-5.138-0.791c-9.486,0-17.128,7.642-17.128,17.128 c0,1.186,0.132,2.372,0.395,3.426C6.719,34.783,0,42.424,0,51.515C0,61.66,8.169,69.829,18.314,69.829h63.373 C91.831,69.829,100,61.66,100,51.515C99.868,42.556,93.281,35.046,84.717,33.597z" fill="rgba(191, 255, 250, 0.5385806963520665)" transform="scale(1.3000000000000003)"></path>
</g><g transform="translate(-100 310.3769270247663) rotate(0)">
  <animateTransform attributeName="transform" type="translate" keyTimes="0;1" values="-100 310.3769270247663;1536 310.3769270247663" dur="16.666666666666668s" repeatCount="indefinite" begin="-22.234648092280064s"></animateTransform>
  <path d="M84.717,33.597c0.791-2.503,1.186-5.138,1.186-7.773C85.903,11.594,74.308,0,60.079,0 c-9.881,0-18.445,5.534-22.793,13.702c-1.581-0.527-3.426-0.791-5.138-0.791c-9.486,0-17.128,7.642-17.128,17.128 c0,1.186,0.132,2.372,0.395,3.426C6.719,34.783,0,42.424,0,51.515C0,61.66,8.169,69.829,18.314,69.829h63.373 C91.831,69.829,100,61.66,100,51.515C99.868,42.556,93.281,35.046,84.717,33.597z" fill="rgba(191, 255, 250, 0.5385806963520665)" transform="scale(1.3000000000000003)"></path>
</g><g transform="translate(-100 362.40470763470137) rotate(0)">
  <animateTransform attributeName="transform" type="translate" keyTimes="0;1" values="-100 362.40470763470137;1536 362.40470763470137" dur="16.666666666666668s" repeatCount="indefinite" begin="-14.9493316170955s"></animateTransform>
  <path d="M84.717,33.597c0.791-2.503,1.186-5.138,1.186-7.773C85.903,11.594,74.308,0,60.079,0 c-9.881,0-18.445,5.534-22.793,13.702c-1.581-0.527-3.426-0.791-5.138-0.791c-9.486,0-17.128,7.642-17.128,17.128 c0,1.186,0.132,2.372,0.395,3.426C6.719,34.783,0,42.424,0,51.515C0,61.66,8.169,69.829,18.314,69.829h63.373 C91.831,69.829,100,61.66,100,51.515C99.868,42.556,93.281,35.046,84.717,33.597z" fill="rgba(191, 255, 250, 0.5385806963520665)" transform="scale(1.3000000000000003)"></path>
</g><g transform="translate(-100 36.18294531816083) rotate(0)">
  <animateTransform attributeName="transform" type="translate" keyTimes="0;1" values="-100 36.18294531816083;1536 36.18294531816083" dur="16.666666666666668s" repeatCount="indefinite" begin="-54.03241479841524s"></animateTransform>
  <path d="M84.717,33.597c0.791-2.503,1.186-5.138,1.186-7.773C85.903,11.594,74.308,0,60.079,0 c-9.881,0-18.445,5.534-22.793,13.702c-1.581-0.527-3.426-0.791-5.138-0.791c-9.486,0-17.128,7.642-17.128,17.128 c0,1.186,0.132,2.372,0.395,3.426C6.719,34.783,0,42.424,0,51.515C0,61.66,8.169,69.829,18.314,69.829h63.373 C91.831,69.829,100,61.66,100,51.515C99.868,42.556,93.281,35.046,84.717,33.597z" fill="rgba(191, 255, 250, 0.5385806963520665)" transform="scale(1.3000000000000003)"></path>
</g><g transform="translate(-100 215.5787268682074) rotate(0)">
  <animateTransform attributeName="transform" type="translate" keyTimes="0;1" values="-100 215.5787268682074;1536 215.5787268682074" dur="16.666666666666668s" repeatCount="indefinite" begin="-35.43330627973363s"></animateTransform>
  <path d="M84.717,33.597c0.791-2.503,1.186-5.138,1.186-7.773C85.903,11.594,74.308,0,60.079,0 c-9.881,0-18.445,5.534-22.793,13.702c-1.581-0.527-3.426-0.791-5.138-0.791c-9.486,0-17.128,7.642-17.128,17.128 c0,1.186,0.132,2.372,0.395,3.426C6.719,34.783,0,42.424,0,51.515C0,61.66,8.169,69.829,18.314,69.829h63.373 C91.831,69.829,100,61.66,100,51.515C99.868,42.556,93.281,35.046,84.717,33.597z" fill="rgba(191, 255, 250, 0.5385806963520665)" transform="scale(1.3000000000000003)"></path>
</g><g transform="translate(-100 627.8890188864768) rotate(0)">
  <animateTransform attributeName="transform" type="translate" keyTimes="0;1" values="-100 627.8890188864768;1536 627.8890188864768" dur="16.666666666666668s" repeatCount="indefinite" begin="-14.283500389826317s"></animateTransform>
  <path d="M84.717,33.597c0.791-2.503,1.186-5.138,1.186-7.773C85.903,11.594,74.308,0,60.079,0 c-9.881,0-18.445,5.534-22.793,13.702c-1.581-0.527-3.426-0.791-5.138-0.791c-9.486,0-17.128,7.642-17.128,17.128 c0,1.186,0.132,2.372,0.395,3.426C6.719,34.783,0,42.424,0,51.515C0,61.66,8.169,69.829,18.314,69.829h63.373 C91.831,69.829,100,61.66,100,51.515C99.868,42.556,93.281,35.046,84.717,33.597z" fill="rgba(191, 255, 250, 0.5385806963520665)" transform="scale(1.3000000000000003)"></path>
</g><g transform="translate(-100 293.99284402422967) rotate(0)">
  <animateTransform attributeName="transform" type="translate" keyTimes="0;1" values="-100 293.99284402422967;1536 293.99284402422967" dur="16.666666666666668s" repeatCount="indefinite" begin="-60.45356502181626s"></animateTransform>
  <path d="M84.717,33.597c0.791-2.503,1.186-5.138,1.186-7.773C85.903,11.594,74.308,0,60.079,0 c-9.881,0-18.445,5.534-22.793,13.702c-1.581-0.527-3.426-0.791-5.138-0.791c-9.486,0-17.128,7.642-17.128,17.128 c0,1.186,0.132,2.372,0.395,3.426C6.719,34.783,0,42.424,0,51.515C0,61.66,8.169,69.829,18.314,69.829h63.373 C91.831,69.829,100,61.66,100,51.515C99.868,42.556,93.281,35.046,84.717,33.597z" fill="rgba(191, 255, 250, 0.5385806963520665)" transform="scale(1.3000000000000003)"></path>
</g><g transform="translate(-100 115.4453747987329) rotate(0)">
  <animateTransform attributeName="transform" type="translate" keyTimes="0;1" values="-100 115.4453747987329;1536 115.4453747987329" dur="16.666666666666668s" repeatCount="indefinite" begin="-28.04819146043061s"></animateTransform>
  <path d="M84.717,33.597c0.791-2.503,1.186-5.138,1.186-7.773C85.903,11.594,74.308,0,60.079,0 c-9.881,0-18.445,5.534-22.793,13.702c-1.581-0.527-3.426-0.791-5.138-0.791c-9.486,0-17.128,7.642-17.128,17.128 c0,1.186,0.132,2.372,0.395,3.426C6.719,34.783,0,42.424,0,51.515C0,61.66,8.169,69.829,18.314,69.829h63.373 C91.831,69.829,100,61.66,100,51.515C99.868,42.556,93.281,35.046,84.717,33.597z" fill="rgba(191, 255, 250, 0.5385806963520665)" transform="scale(1.3000000000000003)"></path>
</g><g transform="translate(-100 318.47003146601776) rotate(0)">
  <animateTransform attributeName="transform" type="translate" keyTimes="0;1" values="-100 318.47003146601776;1536 318.47003146601776" dur="16.666666666666668s" repeatCount="indefinite" begin="-47.20471167409238s"></animateTransform>
  <path d="M84.717,33.597c0.791-2.503,1.186-5.138,1.186-7.773C85.903,11.594,74.308,0,60.079,0 c-9.881,0-18.445,5.534-22.793,13.702c-1.581-0.527-3.426-0.791-5.138-0.791c-9.486,0-17.128,7.642-17.128,17.128 c0,1.186,0.132,2.372,0.395,3.426C6.719,34.783,0,42.424,0,51.515C0,61.66,8.169,69.829,18.314,69.829h63.373 C91.831,69.829,100,61.66,100,51.515C99.868,42.556,93.281,35.046,84.717,33.597z" fill="rgba(191, 255, 250, 0.5385806963520665)" transform="scale(1.3000000000000003)"></path>
</g><g transform="translate(-100 622.1103790508957) rotate(0)">
  <animateTransform attributeName="transform" type="translate" keyTimes="0;1" values="-100 622.1103790508957;1536 622.1103790508957" dur="16.666666666666668s" repeatCount="indefinite" begin="-32.57697994845842s"></animateTransform>
  <path d="M84.717,33.597c0.791-2.503,1.186-5.138,1.186-7.773C85.903,11.594,74.308,0,60.079,0 c-9.881,0-18.445,5.534-22.793,13.702c-1.581-0.527-3.426-0.791-5.138-0.791c-9.486,0-17.128,7.642-17.128,17.128 c0,1.186,0.132,2.372,0.395,3.426C6.719,34.783,0,42.424,0,51.515C0,61.66,8.169,69.829,18.314,69.829h63.373 C91.831,69.829,100,61.66,100,51.515C99.868,42.556,93.281,35.046,84.717,33.597z" fill="rgba(191, 255, 250, 0.5385806963520665)" transform="scale(1.3000000000000003)"></path>
</g><g transform="translate(-100 584.7784075207438) rotate(0)">
  <animateTransform attributeName="transform" type="translate" keyTimes="0;1" values="-100 584.7784075207438;1536 584.7784075207438" dur="16.666666666666668s" repeatCount="indefinite" begin="-45.13557055672634s"></animateTransform>
  <path d="M84.717,33.597c0.791-2.503,1.186-5.138,1.186-7.773C85.903,11.594,74.308,0,60.079,0 c-9.881,0-18.445,5.534-22.793,13.702c-1.581-0.527-3.426-0.791-5.138-0.791c-9.486,0-17.128,7.642-17.128,17.128 c0,1.186,0.132,2.372,0.395,3.426C6.719,34.783,0,42.424,0,51.515C0,61.66,8.169,69.829,18.314,69.829h63.373 C91.831,69.829,100,61.66,100,51.515C99.868,42.556,93.281,35.046,84.717,33.597z" fill="rgba(191, 255, 250, 0.5385806963520665)" transform="scale(1.3000000000000003)"></path>
</g></g>
</svg>