<?xml version="1.0" encoding="utf-8"?>
<svg xmlns="http://www.w3.org/2000/svg" xmlns:xlink="http://www.w3.org/1999/xlink" style="margin: auto; background: rgb(89, 156, 246); display: block; z-index: 1; position: relative; shape-rendering: auto;" width="1536" height="696" preserveAspectRatio="xMidYMid" viewBox="0 0 1536 696">
<g transform="translate(768,348) scale(1,1) translate(-768,-348)"><g transform="translate(-100 391.76609050962196) rotate(0)">
  <animateTransform attributeName="transform" type="translate" keyTimes="0;1" values="-100 391.76609050962196;1536 391.76609050962196" dur="66.66666666666667s" repeatCount="indefinite" begin="-41.04384618764714s"></animateTransform>
  <path d="M84.717,33.597c0.791-2.503,1.186-5.138,1.186-7.773C85.903,11.594,74.308,0,60.079,0 c-9.881,0-18.445,5.534-22.793,13.702c-1.581-0.527-3.426-0.791-5.138-0.791c-9.486,0-17.128,7.642-17.128,17.128 c0,1.186,0.132,2.372,0.395,3.426C6.719,34.783,0,42.424,0,51.515C0,61.66,8.169,69.829,18.314,69.829h63.373 C91.831,69.829,100,61.66,100,51.515C99.868,42.556,93.281,35.046,84.717,33.597z" fill="rgba(189, 222, 255, 0.6811613415133568)" transform="scale(0.7150000000000002)"></path>
</g><g transform="translate(-100 330.29225224004847) rotate(0)">
  <animateTransform attributeName="transform" type="translate" keyTimes="0;1" values="-100 330.29225224004847;1536 330.29225224004847" dur="66.66666666666667s" repeatCount="indefinite" begin="-58.95353758635888s"></animateTransform>
  <path d="M84.717,33.597c0.791-2.503,1.186-5.138,1.186-7.773C85.903,11.594,74.308,0,60.079,0 c-9.881,0-18.445,5.534-22.793,13.702c-1.581-0.527-3.426-0.791-5.138-0.791c-9.486,0-17.128,7.642-17.128,17.128 c0,1.186,0.132,2.372,0.395,3.426C6.719,34.783,0,42.424,0,51.515C0,61.66,8.169,69.829,18.314,69.829h63.373 C91.831,69.829,100,61.66,100,51.515C99.868,42.556,93.281,35.046,84.717,33.597z" fill="rgba(189, 222, 255, 0.6811613415133568)" transform="scale(0.7150000000000002)"></path>
</g><g transform="translate(-100 237.75982706774653) rotate(0)">
  <animateTransform attributeName="transform" type="translate" keyTimes="0;1" values="-100 237.75982706774653;1536 237.75982706774653" dur="66.66666666666667s" repeatCount="indefinite" begin="-9.89570897469451s"></animateTransform>
  <path d="M84.717,33.597c0.791-2.503,1.186-5.138,1.186-7.773C85.903,11.594,74.308,0,60.079,0 c-9.881,0-18.445,5.534-22.793,13.702c-1.581-0.527-3.426-0.791-5.138-0.791c-9.486,0-17.128,7.642-17.128,17.128 c0,1.186,0.132,2.372,0.395,3.426C6.719,34.783,0,42.424,0,51.515C0,61.66,8.169,69.829,18.314,69.829h63.373 C91.831,69.829,100,61.66,100,51.515C99.868,42.556,93.281,35.046,84.717,33.597z" fill="rgba(189, 222, 255, 0.6811613415133568)" transform="scale(0.7150000000000002)"></path>
</g><g transform="translate(-100 150.7383565940039) rotate(0)">
  <animateTransform attributeName="transform" type="translate" keyTimes="0;1" values="-100 150.7383565940039;1536 150.7383565940039" dur="66.66666666666667s" repeatCount="indefinite" begin="-59.26680545300607s"></animateTransform>
  <path d="M84.717,33.597c0.791-2.503,1.186-5.138,1.186-7.773C85.903,11.594,74.308,0,60.079,0 c-9.881,0-18.445,5.534-22.793,13.702c-1.581-0.527-3.426-0.791-5.138-0.791c-9.486,0-17.128,7.642-17.128,17.128 c0,1.186,0.132,2.372,0.395,3.426C6.719,34.783,0,42.424,0,51.515C0,61.66,8.169,69.829,18.314,69.829h63.373 C91.831,69.829,100,61.66,100,51.515C99.868,42.556,93.281,35.046,84.717,33.597z" fill="rgba(189, 222, 255, 0.6811613415133568)" transform="scale(0.7150000000000002)"></path>
</g><g transform="translate(-100 256.98612010167824) rotate(0)">
  <animateTransform attributeName="transform" type="translate" keyTimes="0;1" values="-100 256.98612010167824;1536 256.98612010167824" dur="66.66666666666667s" repeatCount="indefinite" begin="-64.99500796029344s"></animateTransform>
  <path d="M84.717,33.597c0.791-2.503,1.186-5.138,1.186-7.773C85.903,11.594,74.308,0,60.079,0 c-9.881,0-18.445,5.534-22.793,13.702c-1.581-0.527-3.426-0.791-5.138-0.791c-9.486,0-17.128,7.642-17.128,17.128 c0,1.186,0.132,2.372,0.395,3.426C6.719,34.783,0,42.424,0,51.515C0,61.66,8.169,69.829,18.314,69.829h63.373 C91.831,69.829,100,61.66,100,51.515C99.868,42.556,93.281,35.046,84.717,33.597z" fill="rgba(189, 222, 255, 0.6811613415133568)" transform="scale(0.7150000000000002)"></path>
</g><g transform="translate(-100 530.6141474271423) rotate(0)">
  <animateTransform attributeName="transform" type="translate" keyTimes="0;1" values="-100 530.6141474271423;1536 530.6141474271423" dur="66.66666666666667s" repeatCount="indefinite" begin="-55.7300872433918s"></animateTransform>
  <path d="M84.717,33.597c0.791-2.503,1.186-5.138,1.186-7.773C85.903,11.594,74.308,0,60.079,0 c-9.881,0-18.445,5.534-22.793,13.702c-1.581-0.527-3.426-0.791-5.138-0.791c-9.486,0-17.128,7.642-17.128,17.128 c0,1.186,0.132,2.372,0.395,3.426C6.719,34.783,0,42.424,0,51.515C0,61.66,8.169,69.829,18.314,69.829h63.373 C91.831,69.829,100,61.66,100,51.515C99.868,42.556,93.281,35.046,84.717,33.597z" fill="rgba(189, 222, 255, 0.6811613415133568)" transform="scale(0.7150000000000002)"></path>
</g><g transform="translate(-100 512.4352799535386) rotate(0)">
  <animateTransform attributeName="transform" type="translate" keyTimes="0;1" values="-100 512.4352799535386;1536 512.4352799535386" dur="66.66666666666667s" repeatCount="indefinite" begin="-55.863626504810476s"></animateTransform>
  <path d="M84.717,33.597c0.791-2.503,1.186-5.138,1.186-7.773C85.903,11.594,74.308,0,60.079,0 c-9.881,0-18.445,5.534-22.793,13.702c-1.581-0.527-3.426-0.791-5.138-0.791c-9.486,0-17.128,7.642-17.128,17.128 c0,1.186,0.132,2.372,0.395,3.426C6.719,34.783,0,42.424,0,51.515C0,61.66,8.169,69.829,18.314,69.829h63.373 C91.831,69.829,100,61.66,100,51.515C99.868,42.556,93.281,35.046,84.717,33.597z" fill="rgba(189, 222, 255, 0.6811613415133568)" transform="scale(0.7150000000000002)"></path>
</g><g transform="translate(-100 384.1518752790399) rotate(0)">
  <animateTransform attributeName="transform" type="translate" keyTimes="0;1" values="-100 384.1518752790399;1536 384.1518752790399" dur="66.66666666666667s" repeatCount="indefinite" begin="-59.325308104860426s"></animateTransform>
  <path d="M84.717,33.597c0.791-2.503,1.186-5.138,1.186-7.773C85.903,11.594,74.308,0,60.079,0 c-9.881,0-18.445,5.534-22.793,13.702c-1.581-0.527-3.426-0.791-5.138-0.791c-9.486,0-17.128,7.642-17.128,17.128 c0,1.186,0.132,2.372,0.395,3.426C6.719,34.783,0,42.424,0,51.515C0,61.66,8.169,69.829,18.314,69.829h63.373 C91.831,69.829,100,61.66,100,51.515C99.868,42.556,93.281,35.046,84.717,33.597z" fill="rgba(189, 222, 255, 0.6811613415133568)" transform="scale(0.7150000000000002)"></path>
</g><g transform="translate(-100 552.4933390013376) rotate(0)">
  <animateTransform attributeName="transform" type="translate" keyTimes="0;1" values="-100 552.4933390013376;1536 552.4933390013376" dur="66.66666666666667s" repeatCount="indefinite" begin="-52.30075576353336s"></animateTransform>
  <path d="M84.717,33.597c0.791-2.503,1.186-5.138,1.186-7.773C85.903,11.594,74.308,0,60.079,0 c-9.881,0-18.445,5.534-22.793,13.702c-1.581-0.527-3.426-0.791-5.138-0.791c-9.486,0-17.128,7.642-17.128,17.128 c0,1.186,0.132,2.372,0.395,3.426C6.719,34.783,0,42.424,0,51.515C0,61.66,8.169,69.829,18.314,69.829h63.373 C91.831,69.829,100,61.66,100,51.515C99.868,42.556,93.281,35.046,84.717,33.597z" fill="rgba(189, 222, 255, 0.6811613415133568)" transform="scale(0.7150000000000002)"></path>
</g><g transform="translate(-100 527.4813416502888) rotate(0)">
  <animateTransform attributeName="transform" type="translate" keyTimes="0;1" values="-100 527.4813416502888;1536 527.4813416502888" dur="66.66666666666667s" repeatCount="indefinite" begin="-41.79335627704976s"></animateTransform>
  <path d="M84.717,33.597c0.791-2.503,1.186-5.138,1.186-7.773C85.903,11.594,74.308,0,60.079,0 c-9.881,0-18.445,5.534-22.793,13.702c-1.581-0.527-3.426-0.791-5.138-0.791c-9.486,0-17.128,7.642-17.128,17.128 c0,1.186,0.132,2.372,0.395,3.426C6.719,34.783,0,42.424,0,51.515C0,61.66,8.169,69.829,18.314,69.829h63.373 C91.831,69.829,100,61.66,100,51.515C99.868,42.556,93.281,35.046,84.717,33.597z" fill="rgba(189, 222, 255, 0.6811613415133568)" transform="scale(0.7150000000000002)"></path>
</g><g transform="translate(-100 319.38546720593627) rotate(0)">
  <animateTransform attributeName="transform" type="translate" keyTimes="0;1" values="-100 319.38546720593627;1536 319.38546720593627" dur="66.66666666666667s" repeatCount="indefinite" begin="-10.831679064292862s"></animateTransform>
  <path d="M84.717,33.597c0.791-2.503,1.186-5.138,1.186-7.773C85.903,11.594,74.308,0,60.079,0 c-9.881,0-18.445,5.534-22.793,13.702c-1.581-0.527-3.426-0.791-5.138-0.791c-9.486,0-17.128,7.642-17.128,17.128 c0,1.186,0.132,2.372,0.395,3.426C6.719,34.783,0,42.424,0,51.515C0,61.66,8.169,69.829,18.314,69.829h63.373 C91.831,69.829,100,61.66,100,51.515C99.868,42.556,93.281,35.046,84.717,33.597z" fill="rgba(189, 222, 255, 0.6811613415133568)" transform="scale(0.7150000000000002)"></path>
</g><g transform="translate(-100 673.7520308604558) rotate(0)">
  <animateTransform attributeName="transform" type="translate" keyTimes="0;1" values="-100 673.7520308604558;1536 673.7520308604558" dur="33.333333333333336s" repeatCount="indefinite" begin="-4.4104126768661125s"></animateTransform>
  <path d="M84.717,33.597c0.791-2.503,1.186-5.138,1.186-7.773C85.903,11.594,74.308,0,60.079,0 c-9.881,0-18.445,5.534-22.793,13.702c-1.581-0.527-3.426-0.791-5.138-0.791c-9.486,0-17.128,7.642-17.128,17.128 c0,1.186,0.132,2.372,0.395,3.426C6.719,34.783,0,42.424,0,51.515C0,61.66,8.169,69.829,18.314,69.829h63.373 C91.831,69.829,100,61.66,100,51.515C99.868,42.556,93.281,35.046,84.717,33.597z" fill="rgba(9, 232, 249, 0.974709728610131)" transform="scale(0.9100000000000001)"></path>
</g><g transform="translate(-100 256.00931129445667) rotate(0)">
  <animateTransform attributeName="transform" type="translate" keyTimes="0;1" values="-100 256.00931129445667;1536 256.00931129445667" dur="33.333333333333336s" repeatCount="indefinite" begin="-51.947960352323726s"></animateTransform>
  <path d="M84.717,33.597c0.791-2.503,1.186-5.138,1.186-7.773C85.903,11.594,74.308,0,60.079,0 c-9.881,0-18.445,5.534-22.793,13.702c-1.581-0.527-3.426-0.791-5.138-0.791c-9.486,0-17.128,7.642-17.128,17.128 c0,1.186,0.132,2.372,0.395,3.426C6.719,34.783,0,42.424,0,51.515C0,61.66,8.169,69.829,18.314,69.829h63.373 C91.831,69.829,100,61.66,100,51.515C99.868,42.556,93.281,35.046,84.717,33.597z" fill="rgba(9, 232, 249, 0.974709728610131)" transform="scale(0.9100000000000001)"></path>
</g><g transform="translate(-100 677.0019231242735) rotate(0)">
  <animateTransform attributeName="transform" type="translate" keyTimes="0;1" values="-100 677.0019231242735;1536 677.0019231242735" dur="33.333333333333336s" repeatCount="indefinite" begin="-23.8043564364914s"></animateTransform>
  <path d="M84.717,33.597c0.791-2.503,1.186-5.138,1.186-7.773C85.903,11.594,74.308,0,60.079,0 c-9.881,0-18.445,5.534-22.793,13.702c-1.581-0.527-3.426-0.791-5.138-0.791c-9.486,0-17.128,7.642-17.128,17.128 c0,1.186,0.132,2.372,0.395,3.426C6.719,34.783,0,42.424,0,51.515C0,61.66,8.169,69.829,18.314,69.829h63.373 C91.831,69.829,100,61.66,100,51.515C99.868,42.556,93.281,35.046,84.717,33.597z" fill="rgba(9, 232, 249, 0.974709728610131)" transform="scale(0.9100000000000001)"></path>
</g><g transform="translate(-100 366.02320732407406) rotate(0)">
  <animateTransform attributeName="transform" type="translate" keyTimes="0;1" values="-100 366.02320732407406;1536 366.02320732407406" dur="33.333333333333336s" repeatCount="indefinite" begin="-25.566743780398287s"></animateTransform>
  <path d="M84.717,33.597c0.791-2.503,1.186-5.138,1.186-7.773C85.903,11.594,74.308,0,60.079,0 c-9.881,0-18.445,5.534-22.793,13.702c-1.581-0.527-3.426-0.791-5.138-0.791c-9.486,0-17.128,7.642-17.128,17.128 c0,1.186,0.132,2.372,0.395,3.426C6.719,34.783,0,42.424,0,51.515C0,61.66,8.169,69.829,18.314,69.829h63.373 C91.831,69.829,100,61.66,100,51.515C99.868,42.556,93.281,35.046,84.717,33.597z" fill="rgba(9, 232, 249, 0.974709728610131)" transform="scale(0.9100000000000001)"></path>
</g><g transform="translate(-100 476.4680576775318) rotate(0)">
  <animateTransform attributeName="transform" type="translate" keyTimes="0;1" values="-100 476.4680576775318;1536 476.4680576775318" dur="33.333333333333336s" repeatCount="indefinite" begin="-42.609922683849106s"></animateTransform>
  <path d="M84.717,33.597c0.791-2.503,1.186-5.138,1.186-7.773C85.903,11.594,74.308,0,60.079,0 c-9.881,0-18.445,5.534-22.793,13.702c-1.581-0.527-3.426-0.791-5.138-0.791c-9.486,0-17.128,7.642-17.128,17.128 c0,1.186,0.132,2.372,0.395,3.426C6.719,34.783,0,42.424,0,51.515C0,61.66,8.169,69.829,18.314,69.829h63.373 C91.831,69.829,100,61.66,100,51.515C99.868,42.556,93.281,35.046,84.717,33.597z" fill="rgba(9, 232, 249, 0.974709728610131)" transform="scale(0.9100000000000001)"></path>
</g><g transform="translate(-100 577.7846867801277) rotate(0)">
  <animateTransform attributeName="transform" type="translate" keyTimes="0;1" values="-100 577.7846867801277;1536 577.7846867801277" dur="33.333333333333336s" repeatCount="indefinite" begin="-10.063452971499917s"></animateTransform>
  <path d="M84.717,33.597c0.791-2.503,1.186-5.138,1.186-7.773C85.903,11.594,74.308,0,60.079,0 c-9.881,0-18.445,5.534-22.793,13.702c-1.581-0.527-3.426-0.791-5.138-0.791c-9.486,0-17.128,7.642-17.128,17.128 c0,1.186,0.132,2.372,0.395,3.426C6.719,34.783,0,42.424,0,51.515C0,61.66,8.169,69.829,18.314,69.829h63.373 C91.831,69.829,100,61.66,100,51.515C99.868,42.556,93.281,35.046,84.717,33.597z" fill="rgba(9, 232, 249, 0.974709728610131)" transform="scale(0.9100000000000001)"></path>
</g><g transform="translate(-100 13.911338533072227) rotate(0)">
  <animateTransform attributeName="transform" type="translate" keyTimes="0;1" values="-100 13.911338533072227;1536 13.911338533072227" dur="33.333333333333336s" repeatCount="indefinite" begin="-4.936425687225107s"></animateTransform>
  <path d="M84.717,33.597c0.791-2.503,1.186-5.138,1.186-7.773C85.903,11.594,74.308,0,60.079,0 c-9.881,0-18.445,5.534-22.793,13.702c-1.581-0.527-3.426-0.791-5.138-0.791c-9.486,0-17.128,7.642-17.128,17.128 c0,1.186,0.132,2.372,0.395,3.426C6.719,34.783,0,42.424,0,51.515C0,61.66,8.169,69.829,18.314,69.829h63.373 C91.831,69.829,100,61.66,100,51.515C99.868,42.556,93.281,35.046,84.717,33.597z" fill="rgba(9, 232, 249, 0.974709728610131)" transform="scale(0.9100000000000001)"></path>
</g><g transform="translate(-100 446.3225669234179) rotate(0)">
  <animateTransform attributeName="transform" type="translate" keyTimes="0;1" values="-100 446.3225669234179;1536 446.3225669234179" dur="33.333333333333336s" repeatCount="indefinite" begin="-8.155382210094553s"></animateTransform>
  <path d="M84.717,33.597c0.791-2.503,1.186-5.138,1.186-7.773C85.903,11.594,74.308,0,60.079,0 c-9.881,0-18.445,5.534-22.793,13.702c-1.581-0.527-3.426-0.791-5.138-0.791c-9.486,0-17.128,7.642-17.128,17.128 c0,1.186,0.132,2.372,0.395,3.426C6.719,34.783,0,42.424,0,51.515C0,61.66,8.169,69.829,18.314,69.829h63.373 C91.831,69.829,100,61.66,100,51.515C99.868,42.556,93.281,35.046,84.717,33.597z" fill="rgba(9, 232, 249, 0.974709728610131)" transform="scale(0.9100000000000001)"></path>
</g><g transform="translate(-100 58.7176746930373) rotate(0)">
  <animateTransform attributeName="transform" type="translate" keyTimes="0;1" values="-100 58.7176746930373;1536 58.7176746930373" dur="33.333333333333336s" repeatCount="indefinite" begin="-59.048634241843025s"></animateTransform>
  <path d="M84.717,33.597c0.791-2.503,1.186-5.138,1.186-7.773C85.903,11.594,74.308,0,60.079,0 c-9.881,0-18.445,5.534-22.793,13.702c-1.581-0.527-3.426-0.791-5.138-0.791c-9.486,0-17.128,7.642-17.128,17.128 c0,1.186,0.132,2.372,0.395,3.426C6.719,34.783,0,42.424,0,51.515C0,61.66,8.169,69.829,18.314,69.829h63.373 C91.831,69.829,100,61.66,100,51.515C99.868,42.556,93.281,35.046,84.717,33.597z" fill="rgba(9, 232, 249, 0.974709728610131)" transform="scale(0.9100000000000001)"></path>
</g><g transform="translate(-100 99.61115809985891) rotate(0)">
  <animateTransform attributeName="transform" type="translate" keyTimes="0;1" values="-100 99.61115809985891;1536 99.61115809985891" dur="33.333333333333336s" repeatCount="indefinite" begin="-49.27638044364413s"></animateTransform>
  <path d="M84.717,33.597c0.791-2.503,1.186-5.138,1.186-7.773C85.903,11.594,74.308,0,60.079,0 c-9.881,0-18.445,5.534-22.793,13.702c-1.581-0.527-3.426-0.791-5.138-0.791c-9.486,0-17.128,7.642-17.128,17.128 c0,1.186,0.132,2.372,0.395,3.426C6.719,34.783,0,42.424,0,51.515C0,61.66,8.169,69.829,18.314,69.829h63.373 C91.831,69.829,100,61.66,100,51.515C99.868,42.556,93.281,35.046,84.717,33.597z" fill="rgba(9, 232, 249, 0.974709728610131)" transform="scale(0.9100000000000001)"></path>
</g><g transform="translate(-100 233.38570836240086) rotate(0)">
  <animateTransform attributeName="transform" type="translate" keyTimes="0;1" values="-100 233.38570836240086;1536 233.38570836240086" dur="33.333333333333336s" repeatCount="indefinite" begin="-57.682186688619645s"></animateTransform>
  <path d="M84.717,33.597c0.791-2.503,1.186-5.138,1.186-7.773C85.903,11.594,74.308,0,60.079,0 c-9.881,0-18.445,5.534-22.793,13.702c-1.581-0.527-3.426-0.791-5.138-0.791c-9.486,0-17.128,7.642-17.128,17.128 c0,1.186,0.132,2.372,0.395,3.426C6.719,34.783,0,42.424,0,51.515C0,61.66,8.169,69.829,18.314,69.829h63.373 C91.831,69.829,100,61.66,100,51.515C99.868,42.556,93.281,35.046,84.717,33.597z" fill="rgba(9, 232, 249, 0.974709728610131)" transform="scale(0.9100000000000001)"></path>
</g><g transform="translate(-100 273.5830057647526) rotate(0)">
  <animateTransform attributeName="transform" type="translate" keyTimes="0;1" values="-100 273.5830057647526;1536 273.5830057647526" dur="22.222222222222225s" repeatCount="indefinite" begin="-10.149930717009042s"></animateTransform>
  <path d="M84.717,33.597c0.791-2.503,1.186-5.138,1.186-7.773C85.903,11.594,74.308,0,60.079,0 c-9.881,0-18.445,5.534-22.793,13.702c-1.581-0.527-3.426-0.791-5.138-0.791c-9.486,0-17.128,7.642-17.128,17.128 c0,1.186,0.132,2.372,0.395,3.426C6.719,34.783,0,42.424,0,51.515C0,61.66,8.169,69.829,18.314,69.829h63.373 C91.831,69.829,100,61.66,100,51.515C99.868,42.556,93.281,35.046,84.717,33.597z" fill="rgba(31, 90, 246, 0.4714839221585182)" transform="scale(1.1050000000000002)"></path>
</g><g transform="translate(-100 325.9596413857264) rotate(0)">
  <animateTransform attributeName="transform" type="translate" keyTimes="0;1" values="-100 325.9596413857264;1536 325.9596413857264" dur="22.222222222222225s" repeatCount="indefinite" begin="-18.481608669645027s"></animateTransform>
  <path d="M84.717,33.597c0.791-2.503,1.186-5.138,1.186-7.773C85.903,11.594,74.308,0,60.079,0 c-9.881,0-18.445,5.534-22.793,13.702c-1.581-0.527-3.426-0.791-5.138-0.791c-9.486,0-17.128,7.642-17.128,17.128 c0,1.186,0.132,2.372,0.395,3.426C6.719,34.783,0,42.424,0,51.515C0,61.66,8.169,69.829,18.314,69.829h63.373 C91.831,69.829,100,61.66,100,51.515C99.868,42.556,93.281,35.046,84.717,33.597z" fill="rgba(31, 90, 246, 0.4714839221585182)" transform="scale(1.1050000000000002)"></path>
</g><g transform="translate(-100 425.91407853169187) rotate(0)">
  <animateTransform attributeName="transform" type="translate" keyTimes="0;1" values="-100 425.91407853169187;1536 425.91407853169187" dur="22.222222222222225s" repeatCount="indefinite" begin="-37.39000086881041s"></animateTransform>
  <path d="M84.717,33.597c0.791-2.503,1.186-5.138,1.186-7.773C85.903,11.594,74.308,0,60.079,0 c-9.881,0-18.445,5.534-22.793,13.702c-1.581-0.527-3.426-0.791-5.138-0.791c-9.486,0-17.128,7.642-17.128,17.128 c0,1.186,0.132,2.372,0.395,3.426C6.719,34.783,0,42.424,0,51.515C0,61.66,8.169,69.829,18.314,69.829h63.373 C91.831,69.829,100,61.66,100,51.515C99.868,42.556,93.281,35.046,84.717,33.597z" fill="rgba(31, 90, 246, 0.4714839221585182)" transform="scale(1.1050000000000002)"></path>
</g><g transform="translate(-100 197.9932040237878) rotate(0)">
  <animateTransform attributeName="transform" type="translate" keyTimes="0;1" values="-100 197.9932040237878;1536 197.9932040237878" dur="22.222222222222225s" repeatCount="indefinite" begin="-12.373553908870457s"></animateTransform>
  <path d="M84.717,33.597c0.791-2.503,1.186-5.138,1.186-7.773C85.903,11.594,74.308,0,60.079,0 c-9.881,0-18.445,5.534-22.793,13.702c-1.581-0.527-3.426-0.791-5.138-0.791c-9.486,0-17.128,7.642-17.128,17.128 c0,1.186,0.132,2.372,0.395,3.426C6.719,34.783,0,42.424,0,51.515C0,61.66,8.169,69.829,18.314,69.829h63.373 C91.831,69.829,100,61.66,100,51.515C99.868,42.556,93.281,35.046,84.717,33.597z" fill="rgba(31, 90, 246, 0.4714839221585182)" transform="scale(1.1050000000000002)"></path>
</g><g transform="translate(-100 6.41600292779499) rotate(0)">
  <animateTransform attributeName="transform" type="translate" keyTimes="0;1" values="-100 6.41600292779499;1536 6.41600292779499" dur="22.222222222222225s" repeatCount="indefinite" begin="-57.185561374389s"></animateTransform>
  <path d="M84.717,33.597c0.791-2.503,1.186-5.138,1.186-7.773C85.903,11.594,74.308,0,60.079,0 c-9.881,0-18.445,5.534-22.793,13.702c-1.581-0.527-3.426-0.791-5.138-0.791c-9.486,0-17.128,7.642-17.128,17.128 c0,1.186,0.132,2.372,0.395,3.426C6.719,34.783,0,42.424,0,51.515C0,61.66,8.169,69.829,18.314,69.829h63.373 C91.831,69.829,100,61.66,100,51.515C99.868,42.556,93.281,35.046,84.717,33.597z" fill="rgba(31, 90, 246, 0.4714839221585182)" transform="scale(1.1050000000000002)"></path>
</g><g transform="translate(-100 121.28006743565182) rotate(0)">
  <animateTransform attributeName="transform" type="translate" keyTimes="0;1" values="-100 121.28006743565182;1536 121.28006743565182" dur="22.222222222222225s" repeatCount="indefinite" begin="-35.060772655824316s"></animateTransform>
  <path d="M84.717,33.597c0.791-2.503,1.186-5.138,1.186-7.773C85.903,11.594,74.308,0,60.079,0 c-9.881,0-18.445,5.534-22.793,13.702c-1.581-0.527-3.426-0.791-5.138-0.791c-9.486,0-17.128,7.642-17.128,17.128 c0,1.186,0.132,2.372,0.395,3.426C6.719,34.783,0,42.424,0,51.515C0,61.66,8.169,69.829,18.314,69.829h63.373 C91.831,69.829,100,61.66,100,51.515C99.868,42.556,93.281,35.046,84.717,33.597z" fill="rgba(31, 90, 246, 0.4714839221585182)" transform="scale(1.1050000000000002)"></path>
</g><g transform="translate(-100 657.4639343095417) rotate(0)">
  <animateTransform attributeName="transform" type="translate" keyTimes="0;1" values="-100 657.4639343095417;1536 657.4639343095417" dur="22.222222222222225s" repeatCount="indefinite" begin="-39.652499953802824s"></animateTransform>
  <path d="M84.717,33.597c0.791-2.503,1.186-5.138,1.186-7.773C85.903,11.594,74.308,0,60.079,0 c-9.881,0-18.445,5.534-22.793,13.702c-1.581-0.527-3.426-0.791-5.138-0.791c-9.486,0-17.128,7.642-17.128,17.128 c0,1.186,0.132,2.372,0.395,3.426C6.719,34.783,0,42.424,0,51.515C0,61.66,8.169,69.829,18.314,69.829h63.373 C91.831,69.829,100,61.66,100,51.515C99.868,42.556,93.281,35.046,84.717,33.597z" fill="rgba(31, 90, 246, 0.4714839221585182)" transform="scale(1.1050000000000002)"></path>
</g><g transform="translate(-100 540.0169125361394) rotate(0)">
  <animateTransform attributeName="transform" type="translate" keyTimes="0;1" values="-100 540.0169125361394;1536 540.0169125361394" dur="22.222222222222225s" repeatCount="indefinite" begin="-25.391248260633564s"></animateTransform>
  <path d="M84.717,33.597c0.791-2.503,1.186-5.138,1.186-7.773C85.903,11.594,74.308,0,60.079,0 c-9.881,0-18.445,5.534-22.793,13.702c-1.581-0.527-3.426-0.791-5.138-0.791c-9.486,0-17.128,7.642-17.128,17.128 c0,1.186,0.132,2.372,0.395,3.426C6.719,34.783,0,42.424,0,51.515C0,61.66,8.169,69.829,18.314,69.829h63.373 C91.831,69.829,100,61.66,100,51.515C99.868,42.556,93.281,35.046,84.717,33.597z" fill="rgba(31, 90, 246, 0.4714839221585182)" transform="scale(1.1050000000000002)"></path>
</g><g transform="translate(-100 407.9881118414619) rotate(0)">
  <animateTransform attributeName="transform" type="translate" keyTimes="0;1" values="-100 407.9881118414619;1536 407.9881118414619" dur="22.222222222222225s" repeatCount="indefinite" begin="-30.764082124500653s"></animateTransform>
  <path d="M84.717,33.597c0.791-2.503,1.186-5.138,1.186-7.773C85.903,11.594,74.308,0,60.079,0 c-9.881,0-18.445,5.534-22.793,13.702c-1.581-0.527-3.426-0.791-5.138-0.791c-9.486,0-17.128,7.642-17.128,17.128 c0,1.186,0.132,2.372,0.395,3.426C6.719,34.783,0,42.424,0,51.515C0,61.66,8.169,69.829,18.314,69.829h63.373 C91.831,69.829,100,61.66,100,51.515C99.868,42.556,93.281,35.046,84.717,33.597z" fill="rgba(31, 90, 246, 0.4714839221585182)" transform="scale(1.1050000000000002)"></path>
</g><g transform="translate(-100 174.43792035090615) rotate(0)">
  <animateTransform attributeName="transform" type="translate" keyTimes="0;1" values="-100 174.43792035090615;1536 174.43792035090615" dur="22.222222222222225s" repeatCount="indefinite" begin="-22.870290623243033s"></animateTransform>
  <path d="M84.717,33.597c0.791-2.503,1.186-5.138,1.186-7.773C85.903,11.594,74.308,0,60.079,0 c-9.881,0-18.445,5.534-22.793,13.702c-1.581-0.527-3.426-0.791-5.138-0.791c-9.486,0-17.128,7.642-17.128,17.128 c0,1.186,0.132,2.372,0.395,3.426C6.719,34.783,0,42.424,0,51.515C0,61.66,8.169,69.829,18.314,69.829h63.373 C91.831,69.829,100,61.66,100,51.515C99.868,42.556,93.281,35.046,84.717,33.597z" fill="rgba(31, 90, 246, 0.4714839221585182)" transform="scale(1.1050000000000002)"></path>
</g><g transform="translate(-100 499.81503839187604) rotate(0)">
  <animateTransform attributeName="transform" type="translate" keyTimes="0;1" values="-100 499.81503839187604;1536 499.81503839187604" dur="22.222222222222225s" repeatCount="indefinite" begin="-18.98509319635659s"></animateTransform>
  <path d="M84.717,33.597c0.791-2.503,1.186-5.138,1.186-7.773C85.903,11.594,74.308,0,60.079,0 c-9.881,0-18.445,5.534-22.793,13.702c-1.581-0.527-3.426-0.791-5.138-0.791c-9.486,0-17.128,7.642-17.128,17.128 c0,1.186,0.132,2.372,0.395,3.426C6.719,34.783,0,42.424,0,51.515C0,61.66,8.169,69.829,18.314,69.829h63.373 C91.831,69.829,100,61.66,100,51.515C99.868,42.556,93.281,35.046,84.717,33.597z" fill="rgba(31, 90, 246, 0.4714839221585182)" transform="scale(1.1050000000000002)"></path>
</g><g transform="translate(-100 296.5575865108792) rotate(0)">
  <animateTransform attributeName="transform" type="translate" keyTimes="0;1" values="-100 296.5575865108792;1536 296.5575865108792" dur="16.666666666666668s" repeatCount="indefinite" begin="-18.751818526476207s"></animateTransform>
  <path d="M84.717,33.597c0.791-2.503,1.186-5.138,1.186-7.773C85.903,11.594,74.308,0,60.079,0 c-9.881,0-18.445,5.534-22.793,13.702c-1.581-0.527-3.426-0.791-5.138-0.791c-9.486,0-17.128,7.642-17.128,17.128 c0,1.186,0.132,2.372,0.395,3.426C6.719,34.783,0,42.424,0,51.515C0,61.66,8.169,69.829,18.314,69.829h63.373 C91.831,69.829,100,61.66,100,51.515C99.868,42.556,93.281,35.046,84.717,33.597z" fill="rgba(191, 255, 250, 0.5385806963520665)" transform="scale(1.3000000000000003)"></path>
</g><g transform="translate(-100 267.5525095309264) rotate(0)">
  <animateTransform attributeName="transform" type="translate" keyTimes="0;1" values="-100 267.5525095309264;1536 267.5525095309264" dur="16.666666666666668s" repeatCount="indefinite" begin="-21.497118703240478s"></animateTransform>
  <path d="M84.717,33.597c0.791-2.503,1.186-5.138,1.186-7.773C85.903,11.594,74.308,0,60.079,0 c-9.881,0-18.445,5.534-22.793,13.702c-1.581-0.527-3.426-0.791-5.138-0.791c-9.486,0-17.128,7.642-17.128,17.128 c0,1.186,0.132,2.372,0.395,3.426C6.719,34.783,0,42.424,0,51.515C0,61.66,8.169,69.829,18.314,69.829h63.373 C91.831,69.829,100,61.66,100,51.515C99.868,42.556,93.281,35.046,84.717,33.597z" fill="rgba(191, 255, 250, 0.5385806963520665)" transform="scale(1.3000000000000003)"></path>
</g><g transform="translate(-100 692.6034688741139) rotate(0)">
  <animateTransform attributeName="transform" type="translate" keyTimes="0;1" values="-100 692.6034688741139;1536 692.6034688741139" dur="16.666666666666668s" repeatCount="indefinite" begin="-3.4741153753246787s"></animateTransform>
  <path d="M84.717,33.597c0.791-2.503,1.186-5.138,1.186-7.773C85.903,11.594,74.308,0,60.079,0 c-9.881,0-18.445,5.534-22.793,13.702c-1.581-0.527-3.426-0.791-5.138-0.791c-9.486,0-17.128,7.642-17.128,17.128 c0,1.186,0.132,2.372,0.395,3.426C6.719,34.783,0,42.424,0,51.515C0,61.66,8.169,69.829,18.314,69.829h63.373 C91.831,69.829,100,61.66,100,51.515C99.868,42.556,93.281,35.046,84.717,33.597z" fill="rgba(191, 255, 250, 0.5385806963520665)" transform="scale(1.3000000000000003)"></path>
</g><g transform="translate(-100 45.38235228797877) rotate(0)">
  <animateTransform attributeName="transform" type="translate" keyTimes="0;1" values="-100 45.38235228797877;1536 45.38235228797877" dur="16.666666666666668s" repeatCount="indefinite" begin="-32.863253068292245s"></animateTransform>
  <path d="M84.717,33.597c0.791-2.503,1.186-5.138,1.186-7.773C85.903,11.594,74.308,0,60.079,0 c-9.881,0-18.445,5.534-22.793,13.702c-1.581-0.527-3.426-0.791-5.138-0.791c-9.486,0-17.128,7.642-17.128,17.128 c0,1.186,0.132,2.372,0.395,3.426C6.719,34.783,0,42.424,0,51.515C0,61.66,8.169,69.829,18.314,69.829h63.373 C91.831,69.829,100,61.66,100,51.515C99.868,42.556,93.281,35.046,84.717,33.597z" fill="rgba(191, 255, 250, 0.5385806963520665)" transform="scale(1.3000000000000003)"></path>
</g><g transform="translate(-100 180.8129592543691) rotate(0)">
  <animateTransform attributeName="transform" type="translate" keyTimes="0;1" values="-100 180.8129592543691;1536 180.8129592543691" dur="16.666666666666668s" repeatCount="indefinite" begin="-33.80816436784291s"></animateTransform>
  <path d="M84.717,33.597c0.791-2.503,1.186-5.138,1.186-7.773C85.903,11.594,74.308,0,60.079,0 c-9.881,0-18.445,5.534-22.793,13.702c-1.581-0.527-3.426-0.791-5.138-0.791c-9.486,0-17.128,7.642-17.128,17.128 c0,1.186,0.132,2.372,0.395,3.426C6.719,34.783,0,42.424,0,51.515C0,61.66,8.169,69.829,18.314,69.829h63.373 C91.831,69.829,100,61.66,100,51.515C99.868,42.556,93.281,35.046,84.717,33.597z" fill="rgba(191, 255, 250, 0.5385806963520665)" transform="scale(1.3000000000000003)"></path>
</g><g transform="translate(-100 184.9584600131692) rotate(0)">
  <animateTransform attributeName="transform" type="translate" keyTimes="0;1" values="-100 184.9584600131692;1536 184.9584600131692" dur="16.666666666666668s" repeatCount="indefinite" begin="-45.80532772542701s"></animateTransform>
  <path d="M84.717,33.597c0.791-2.503,1.186-5.138,1.186-7.773C85.903,11.594,74.308,0,60.079,0 c-9.881,0-18.445,5.534-22.793,13.702c-1.581-0.527-3.426-0.791-5.138-0.791c-9.486,0-17.128,7.642-17.128,17.128 c0,1.186,0.132,2.372,0.395,3.426C6.719,34.783,0,42.424,0,51.515C0,61.66,8.169,69.829,18.314,69.829h63.373 C91.831,69.829,100,61.66,100,51.515C99.868,42.556,93.281,35.046,84.717,33.597z" fill="rgba(191, 255, 250, 0.5385806963520665)" transform="scale(1.3000000000000003)"></path>
</g><g transform="translate(-100 438.7181324552037) rotate(0)">
  <animateTransform attributeName="transform" type="translate" keyTimes="0;1" values="-100 438.7181324552037;1536 438.7181324552037" dur="16.666666666666668s" repeatCount="indefinite" begin="-28.559071493562186s"></animateTransform>
  <path d="M84.717,33.597c0.791-2.503,1.186-5.138,1.186-7.773C85.903,11.594,74.308,0,60.079,0 c-9.881,0-18.445,5.534-22.793,13.702c-1.581-0.527-3.426-0.791-5.138-0.791c-9.486,0-17.128,7.642-17.128,17.128 c0,1.186,0.132,2.372,0.395,3.426C6.719,34.783,0,42.424,0,51.515C0,61.66,8.169,69.829,18.314,69.829h63.373 C91.831,69.829,100,61.66,100,51.515C99.868,42.556,93.281,35.046,84.717,33.597z" fill="rgba(191, 255, 250, 0.5385806963520665)" transform="scale(1.3000000000000003)"></path>
</g><g transform="translate(-100 562.2511321276456) rotate(0)">
  <animateTransform attributeName="transform" type="translate" keyTimes="0;1" values="-100 562.2511321276456;1536 562.2511321276456" dur="16.666666666666668s" repeatCount="indefinite" begin="-9.078860105613407s"></animateTransform>
  <path d="M84.717,33.597c0.791-2.503,1.186-5.138,1.186-7.773C85.903,11.594,74.308,0,60.079,0 c-9.881,0-18.445,5.534-22.793,13.702c-1.581-0.527-3.426-0.791-5.138-0.791c-9.486,0-17.128,7.642-17.128,17.128 c0,1.186,0.132,2.372,0.395,3.426C6.719,34.783,0,42.424,0,51.515C0,61.66,8.169,69.829,18.314,69.829h63.373 C91.831,69.829,100,61.66,100,51.515C99.868,42.556,93.281,35.046,84.717,33.597z" fill="rgba(191, 255, 250, 0.5385806963520665)" transform="scale(1.3000000000000003)"></path>
</g><g transform="translate(-100 483.1675712005788) rotate(0)">
  <animateTransform attributeName="transform" type="translate" keyTimes="0;1" values="-100 483.1675712005788;1536 483.1675712005788" dur="16.666666666666668s" repeatCount="indefinite" begin="-10.46345730030988s"></animateTransform>
  <path d="M84.717,33.597c0.791-2.503,1.186-5.138,1.186-7.773C85.903,11.594,74.308,0,60.079,0 c-9.881,0-18.445,5.534-22.793,13.702c-1.581-0.527-3.426-0.791-5.138-0.791c-9.486,0-17.128,7.642-17.128,17.128 c0,1.186,0.132,2.372,0.395,3.426C6.719,34.783,0,42.424,0,51.515C0,61.66,8.169,69.829,18.314,69.829h63.373 C91.831,69.829,100,61.66,100,51.515C99.868,42.556,93.281,35.046,84.717,33.597z" fill="rgba(191, 255, 250, 0.5385806963520665)" transform="scale(1.3000000000000003)"></path>
</g><g transform="translate(-100 165.29312934372155) rotate(0)">
  <animateTransform attributeName="transform" type="translate" keyTimes="0;1" values="-100 165.29312934372155;1536 165.29312934372155" dur="16.666666666666668s" repeatCount="indefinite" begin="-46.56741685197907s"></animateTransform>
  <path d="M84.717,33.597c0.791-2.503,1.186-5.138,1.186-7.773C85.903,11.594,74.308,0,60.079,0 c-9.881,0-18.445,5.534-22.793,13.702c-1.581-0.527-3.426-0.791-5.138-0.791c-9.486,0-17.128,7.642-17.128,17.128 c0,1.186,0.132,2.372,0.395,3.426C6.719,34.783,0,42.424,0,51.515C0,61.66,8.169,69.829,18.314,69.829h63.373 C91.831,69.829,100,61.66,100,51.515C99.868,42.556,93.281,35.046,84.717,33.597z" fill="rgba(191, 255, 250, 0.5385806963520665)" transform="scale(1.3000000000000003)"></path>
</g><g transform="translate(-100 568.2252365687588) rotate(0)">
  <animateTransform attributeName="transform" type="translate" keyTimes="0;1" values="-100 568.2252365687588;1536 568.2252365687588" dur="16.666666666666668s" repeatCount="indefinite" begin="-26.332326307127833s"></animateTransform>
  <path d="M84.717,33.597c0.791-2.503,1.186-5.138,1.186-7.773C85.903,11.594,74.308,0,60.079,0 c-9.881,0-18.445,5.534-22.793,13.702c-1.581-0.527-3.426-0.791-5.138-0.791c-9.486,0-17.128,7.642-17.128,17.128 c0,1.186,0.132,2.372,0.395,3.426C6.719,34.783,0,42.424,0,51.515C0,61.66,8.169,69.829,18.314,69.829h63.373 C91.831,69.829,100,61.66,100,51.515C99.868,42.556,93.281,35.046,84.717,33.597z" fill="rgba(191, 255, 250, 0.5385806963520665)" transform="scale(1.3000000000000003)"></path>
</g><g transform="translate(-100 139.66087206790345) rotate(0)">
  <animateTransform attributeName="transform" type="translate" keyTimes="0;1" values="-100 139.66087206790345;1536 139.66087206790345" dur="16.666666666666668s" repeatCount="indefinite" begin="-46.6946786037648s"></animateTransform>
  <path d="M84.717,33.597c0.791-2.503,1.186-5.138,1.186-7.773C85.903,11.594,74.308,0,60.079,0 c-9.881,0-18.445,5.534-22.793,13.702c-1.581-0.527-3.426-0.791-5.138-0.791c-9.486,0-17.128,7.642-17.128,17.128 c0,1.186,0.132,2.372,0.395,3.426C6.719,34.783,0,42.424,0,51.515C0,61.66,8.169,69.829,18.314,69.829h63.373 C91.831,69.829,100,61.66,100,51.515C99.868,42.556,93.281,35.046,84.717,33.597z" fill="rgba(191, 255, 250, 0.5385806963520665)" transform="scale(1.3000000000000003)"></path>
</g></g>
</svg>